# xmcd CD database file
#
# Track frame offsets:
#	182
#	16797
#	36877
#	54475
#	73492
#	92430
#	108805
#	124857
#	141137
#	160137
#	181965
#	196615
#
# Disc length: 2812 seconds
#
# Revision: 4
# Processed by: cddbd v1.5.1PL2 Copyright (c) Steve Scherf et al.
# Submitted via: CDex 1.60beta1
#
DISCID=980afa0c
DTITLE=Akina Nakamori - Cross My Palm
DYEAR=1989
DGENRE=Rock
TTITLE0=CROSS MY PALM
TTITLE1=POLITICAL MOVES
TTITLE2=SLAVE FOR LOVE
TTITLE3=EASY RIDER
TTITLE4=MODERN WOMAN (FEMME D'AUJOURD'HUI)
TTITLE5=THE LOOK THAT KILLS
TTITLE6=SOFT TOUCH
TTITLE7=MY POSITION
TTITLE8=THE TOUCH OF A HEARTACHE
TTITLE9=HOUSE OF LOVE
TTITLE10=NO MORE
TTITLE11=HE'S JUST IN LOVE WITH THE BEAT
EXTD=YEAR: 1989
EXTT0=
EXTT1=
EXTT2=
EXTT3=
EXTT4=
EXTT5=
EXTT6=
EXTT7=
EXTT8=
EXTT9=
EXTT10=
EXTT11=
PLAYORDER=
